<svg width="32" height="36" viewBox="0 0 32 36" fill="none" xmlns="http://www.w3.org/2000/svg">
<path d="M1.09548 11.4685C0.828832 11.0066 0.741255 10.4414 0.914474 9.85519C1.24936 8.72193 2.47731 8.01297 3.62619 8.28958L16.3035 11.3418C16.9373 11.4944 17.4367 11.8868 17.7084 12.4754C17.9659 13.0397 17.9396 13.7031 17.636 14.2997L14.9703 19.3716L29.0342 22.7577C30.183 23.0343 30.8567 24.2011 30.5218 25.3344C30.1869 26.4676 28.959 27.1766 27.8101 26.9L11.1711 22.8939C10.5373 22.7413 10.0379 22.349 9.76627 21.7603C9.50868 21.196 9.53498 20.5326 9.83859 19.936L12.5043 14.8641L2.40211 12.4319C1.80786 12.2888 1.36214 11.9303 1.09548 11.4685Z" fill="#D71818"/>
<path d="M21.4215 28.7614C20.822 27.7229 21.1859 26.3646 22.2244 25.765L25.3905 23.937L23.5626 20.7709C22.963 19.7325 23.327 18.3741 24.3655 17.7745C25.404 17.1749 26.7623 17.5389 27.3619 18.5774L30.2866 23.6432C30.8862 24.6816 30.5222 26.04 29.4837 26.6396L24.418 29.5643C23.3795 30.1639 22.0211 29.7999 21.4215 28.7614Z" fill="#D71818"/>
</svg>
