<svg width="30" height="20" viewBox="0 0 30 20" fill="none" xmlns="http://www.w3.org/2000/svg">
<path d="M2.09813 19.1935C1.56483 19.1935 1.03152 18.9867 0.610494 18.5436C-0.203498 17.6869 -0.203498 16.269 0.610494 15.4124L9.59247 5.95965C10.0416 5.48702 10.631 5.2507 11.2766 5.30978C11.8941 5.36886 12.4555 5.72333 12.8204 6.28459L15.8799 11.1291L25.8442 0.64249C26.6582 -0.214163 28.0055 -0.214163 28.8195 0.64249C29.6335 1.49914 29.6335 2.91705 28.8195 3.77371L17.0307 16.1804C16.5816 16.6531 15.9921 16.8894 15.3465 16.8303C14.729 16.7712 14.1677 16.4167 13.8028 15.8555L10.7433 11.011L3.58577 18.5436C3.16474 18.9867 2.63144 19.1935 2.09813 19.1935Z" fill="#259F46"/>
<path d="M27.2365 10.2365C26.0373 10.2365 25.0429 9.24212 25.0429 8.04298V4.38708H21.387C20.1879 4.38708 19.1935 3.39268 19.1935 2.19354C19.1935 0.994405 20.1879 0 21.387 0H27.2365C28.4356 0 29.43 0.994405 29.43 2.19354V8.04298C29.43 9.24212 28.4356 10.2365 27.2365 10.2365Z" fill="#259F46"/>
</svg>
