<svg width="31" height="31" viewBox="0 0 31 31" fill="none" xmlns="http://www.w3.org/2000/svg">
<path d="M22.4719 28.489H8.39331C5.33968 28.489 2.86243 26.0118 2.86243 22.9581V14.7047C2.86243 11.6511 5.33968 9.17383 8.39331 9.17383H22.4719C25.5256 9.17383 28.0028 11.6511 28.0028 14.7047V16.4707C28.0028 16.9735 27.5859 17.3905 27.0831 17.3905H24.6058C24.1766 17.3905 23.7841 17.5499 23.5021 17.8442L23.4898 17.8565C23.1464 18.1876 22.987 18.6413 23.0238 19.1073C23.0974 19.9167 23.87 20.5667 24.753 20.5667H27.0831C27.5859 20.5667 28.0028 20.9837 28.0028 21.4865V22.9458C28.0028 26.0117 25.5256 28.489 22.4719 28.489ZM8.39331 11.0134C6.35756 11.0134 4.70197 12.669 4.70197 14.7047V22.9581C4.70197 24.9939 6.35756 26.6495 8.39331 26.6495H22.4719C24.5077 26.6495 26.1633 24.9939 26.1633 22.9581V22.4185H24.753C22.9012 22.4185 21.3314 21.045 21.1843 19.279C21.0862 18.2734 21.4541 17.2801 22.1899 16.5565C22.8276 15.9066 23.686 15.5509 24.6058 15.5509H26.1633V14.7047C26.1633 12.669 24.5077 11.0134 22.4719 11.0134H8.39331Z" fill="#0052BD"/>
<path d="M3.7822 16.7262C3.27939 16.7262 2.86243 16.3093 2.86243 15.8064V10.202C2.86243 8.37476 4.01521 6.71911 5.71985 6.06914L15.4572 2.39005C16.4628 2.00988 17.5788 2.14484 18.4495 2.75802C19.3325 3.3712 19.8475 4.36455 19.8475 5.43148V10.0916C19.8475 10.5944 19.4306 11.0114 18.9278 11.0114C18.425 11.0114 18.008 10.5944 18.008 10.0916V5.43148C18.008 4.96546 17.7872 4.53622 17.3948 4.26642C17.0024 3.99662 16.5364 3.9353 16.0949 4.10699L6.35756 7.78607C5.3642 8.16624 4.6897 9.13511 4.6897 10.202V15.8064C4.70197 16.3215 4.28501 16.7262 3.7822 16.7262Z" fill="#0052BD"/>
<path d="M24.753 22.4184C22.9012 22.4184 21.3314 21.0449 21.1842 19.2789C21.0861 18.261 21.454 17.2677 22.1899 16.5441C22.8153 15.9064 23.6738 15.5508 24.5935 15.5508H27.1444C28.3585 15.5876 29.2905 16.5441 29.2905 17.7214V20.2478C29.2905 21.4251 28.3585 22.3816 27.1812 22.4184H24.753ZM27.1198 17.3903H24.6058C24.1766 17.3903 23.7841 17.5497 23.5021 17.8441C23.1464 18.1875 22.9747 18.6534 23.0238 19.1195C23.0974 19.9289 23.87 20.5788 24.753 20.5788H27.1566C27.3161 20.5788 27.4632 20.4317 27.4632 20.2478V17.7214C27.4632 17.5374 27.3161 17.4026 27.1198 17.3903Z" fill="#0052BD"/>
<path d="M17.8853 16.2243H9.30081C8.79801 16.2243 8.38104 15.8073 8.38104 15.3045C8.38104 14.8017 8.79801 14.3848 9.30081 14.3848H17.8853C18.3881 14.3848 18.8051 14.8017 18.8051 15.3045C18.8051 15.8073 18.3881 16.2243 17.8853 16.2243Z" fill="#0052BD"/>
</svg>
