<svg width="25" height="24" viewBox="0 0 25 24" fill="none" xmlns="http://www.w3.org/2000/svg">
<path d="M21.51 11.2197V15.7097C21.51 20.1997 19.72 21.9998 15.22 21.9998H9.83002C9.25002 21.9998 8.71998 21.9698 8.22998 21.8998" stroke="#292D32" stroke-width="1.5" stroke-linecap="round" stroke-linejoin="round"/>
<path d="M3.54004 15.5198V11.2197" stroke="#292D32" stroke-width="1.5" stroke-linecap="round" stroke-linejoin="round"/>
<path d="M12.53 12C14.36 12 15.71 10.5101 15.53 8.68005L14.86 2H10.19L9.52003 8.68005C9.34003 10.5101 10.7 12 12.53 12Z" stroke="#292D32" stroke-width="1.5" stroke-linecap="round" stroke-linejoin="round"/>
<path d="M18.83 12C20.85 12 22.33 10.36 22.13 8.34998L21.85 5.59998C21.49 2.99998 20.49 2 17.87 2H14.82L15.52 9.01001C15.7 10.66 17.18 12 18.83 12Z" stroke="#292D32" stroke-width="1.5" stroke-linecap="round" stroke-linejoin="round"/>
<path d="M6.17004 12C7.82004 12 9.31003 10.66 9.47003 9.01001L9.69006 6.80005L10.17 2H7.12005C4.50005 2 3.50007 2.99998 3.14007 5.59998L2.86004 8.34998C2.66004 10.36 4.15004 12 6.17004 12Z" stroke="#292D32" stroke-width="1.5" stroke-linecap="round" stroke-linejoin="round"/>
<path d="M9.5 19C9.5 19.75 9.28998 20.4601 8.91998 21.0601C8.72998 21.3801 8.49998 21.67 8.22998 21.9C8.19998 21.94 8.17 21.97 8.13 22C7.43 22.63 6.51 23 5.5 23C4.28 23 3.18997 22.45 2.46997 21.59C2.44997 21.56 2.42002 21.54 2.40002 21.51C2.28002 21.37 2.17002 21.2201 2.08002 21.0601C1.71002 20.4601 1.5 19.75 1.5 19C1.5 17.74 2.08 16.61 3 15.88C3.17 15.74 3.34998 15.62 3.53998 15.52C4.11998 15.19 4.79 15 5.5 15C6.5 15 7.39998 15.36 8.09998 15.97C8.21998 16.06 8.32999 16.17 8.42999 16.28C9.08999 17 9.5 17.95 9.5 19Z" stroke="#292D32" stroke-width="1.5" stroke-miterlimit="10" stroke-linecap="round" stroke-linejoin="round"/>
<path d="M6.98999 18.9795H4.01001" stroke="#292D32" stroke-width="1.5" stroke-miterlimit="10" stroke-linecap="round" stroke-linejoin="round"/>
<path d="M5.5 17.5195V20.5095" stroke="#292D32" stroke-width="1.5" stroke-miterlimit="10" stroke-linecap="round" stroke-linejoin="round"/>
</svg>
