<svg width="158" height="158" fill="none" xmlns="http://www.w3.org/2000/svg"><circle cx="79" cy="79" r="79" fill="#E4FBEF"/><circle cx="79" cy="79.001" r="62.164" fill="#60D2B0" fill-opacity=".25"/><circle cx="78.568" cy="78.568" r="47.486" fill="#24AE5F"/><path fill-rule="evenodd" clip-rule="evenodd" d="M68.43 97.415l-3.41-3.41 33.038-33.158a2.892 2.892 0 014.091 0l1.364 1.364a2.893 2.893 0 010 4.091L72.521 97.415a2.893 2.893 0 01-4.092 0z" fill="#fff"/><path fill-rule="evenodd" clip-rule="evenodd" d="M75.924 94.006l-3.41 3.41a2.893 2.893 0 01-4.09 0L54.846 83.838a2.893 2.893 0 010-4.091l1.364-1.364a2.893 2.893 0 014.092 0l15.621 15.622z" fill="#fff"/></svg>